<svg width="159" height="36" viewBox="0 0 159 36" fill="none" xmlns="http://www.w3.org/2000/svg">
<path fill-rule="evenodd" clip-rule="evenodd" d="M43.2264 0V27H47.6184V0H43.2264ZM112.836 27V0H117.228V27H112.836ZM139.237 9H134.845L135.043 11.304C134.383 10.488 133.579 9.816 132.631 9.288C131.695 8.76 130.633 8.496 129.445 8.496C128.161 8.496 126.961 8.736 125.845 9.216C124.729 9.696 123.745 10.362 122.893 11.214C122.041 12.066 121.375 13.056 120.895 14.184C120.427 15.312 120.193 16.518 120.193 17.802C120.193 19.134 120.439 20.382 120.931 21.546C121.435 22.71 122.125 23.736 123.001 24.624C123.889 25.512 124.915 26.208 126.079 26.712C127.243 27.216 128.491 27.468 129.823 27.468C130.927 27.468 131.881 27.222 132.685 26.73C133.501 26.226 134.155 25.572 134.647 24.768L134.845 27H139.237V9ZM132.199 22.536C131.479 23.004 130.651 23.238 129.715 23.238C128.803 23.238 127.963 23.004 127.195 22.536C126.439 22.068 125.833 21.438 125.377 20.646C124.921 19.854 124.693 18.972 124.693 18C124.693 17.028 124.915 16.146 125.359 15.354C125.815 14.562 126.421 13.932 127.177 13.464C127.945 12.984 128.791 12.744 129.715 12.744C130.639 12.744 131.461 12.978 132.181 13.446C132.913 13.914 133.483 14.55 133.891 15.354C134.299 16.146 134.503 17.028 134.503 18C134.503 18.96 134.299 19.842 133.891 20.646C133.483 21.438 132.919 22.068 132.199 22.536ZM158.85 9H154.188L149.796 20.988L145.926 9H141.12L147.6 27L144.342 36H149.004L158.85 9ZM99.4764 9L99.4944 27H103.886V16.776C103.886 16.068 104.054 15.426 104.39 14.85C104.738 14.262 105.2 13.8 105.776 13.464C106.364 13.116 107.012 12.942 107.72 12.942C108.176 12.942 108.632 13.032 109.088 13.212L110.816 8.784C110.156 8.592 109.496 8.496 108.836 8.496C107.852 8.496 106.934 8.688 106.082 9.072C105.23 9.444 104.498 9.954 103.886 10.602L103.868 9H99.4764ZM87.6738 27.468C86.0178 27.468 84.5058 27.042 83.1378 26.19C81.7818 25.338 80.6958 24.192 79.8798 22.752C79.0758 21.312 78.6738 19.722 78.6738 17.982C78.6738 16.674 78.9078 15.45 79.3758 14.31C79.8438 13.158 80.4858 12.15 81.3018 11.286C82.1298 10.41 83.0898 9.726 84.1818 9.234C85.2738 8.742 86.4378 8.496 87.6738 8.496C89.0778 8.496 90.3618 8.796 91.5258 9.396C92.7018 9.984 93.6978 10.794 94.5138 11.826C95.3298 12.858 95.9238 14.034 96.2958 15.354C96.6678 16.674 96.7518 18.054 96.5478 19.494H83.3898C83.5578 20.166 83.8338 20.772 84.2178 21.312C84.6018 21.84 85.0878 22.266 85.6758 22.59C86.2638 22.902 86.9298 23.064 87.6738 23.076C88.4418 23.088 89.1378 22.908 89.7618 22.536C90.3978 22.152 90.9258 21.636 91.3458 20.988L95.8278 22.032C95.0958 23.628 94.0038 24.936 92.5518 25.956C91.0998 26.964 89.4738 27.468 87.6738 27.468ZM83.2458 16.2H92.1018C91.9698 15.48 91.6878 14.832 91.2558 14.256C90.8358 13.668 90.3138 13.2 89.6898 12.852C89.0658 12.504 88.3938 12.33 87.6738 12.33C86.9538 12.33 86.2878 12.504 85.6758 12.852C85.0638 13.188 84.5418 13.65 84.1098 14.238C83.6898 14.814 83.4018 15.468 83.2458 16.2ZM65.5734 27H71.2434L77.7954 8.982H73.1154L68.4174 21.942L63.7014 8.982H59.0214L65.5734 27ZM51.9452 9H56.3372V27H51.9452V9ZM54.1772 6.678C53.5292 6.678 52.9832 6.468 52.5392 6.048C52.0952 5.616 51.8732 5.076 51.8732 4.428C51.8732 3.792 52.0952 3.258 52.5392 2.826C52.9832 2.394 53.5232 2.178 54.1592 2.178C54.7952 2.178 55.3292 2.394 55.7612 2.826C56.2052 3.258 56.4272 3.792 56.4272 4.428C56.4272 5.076 56.2112 5.616 55.7792 6.048C55.3472 6.468 54.8132 6.678 54.1772 6.678ZM31.705 27.468C30.049 27.468 28.537 27.042 27.169 26.19C25.813 25.338 24.727 24.192 23.911 22.752C23.107 21.312 22.705 19.722 22.705 17.982C22.705 16.674 22.939 15.45 23.407 14.31C23.875 13.158 24.517 12.15 25.333 11.286C26.161 10.41 27.121 9.726 28.213 9.234C29.305 8.742 30.469 8.496 31.705 8.496C33.109 8.496 34.393 8.796 35.557 9.396C36.733 9.984 37.729 10.794 38.545 11.826C39.361 12.858 39.955 14.034 40.327 15.354C40.699 16.674 40.783 18.054 40.579 19.494H27.421C27.589 20.166 27.865 20.772 28.249 21.312C28.633 21.84 29.119 22.266 29.707 22.59C30.295 22.902 30.961 23.064 31.705 23.076C32.473 23.088 33.169 22.908 33.793 22.536C34.429 22.152 34.957 21.636 35.377 20.988L39.859 22.032C39.127 23.628 38.035 24.936 36.583 25.956C35.131 26.964 33.505 27.468 31.705 27.468ZM27.277 16.2H36.133C36.001 15.48 35.719 14.832 35.287 14.256C34.867 13.668 34.345 13.2 33.721 12.852C33.097 12.504 32.425 12.33 31.705 12.33C30.985 12.33 30.319 12.504 29.707 12.852C29.095 13.188 28.573 13.65 28.141 14.238C27.721 14.814 27.433 15.468 27.277 16.2ZM0.160034 1.8V27H8.51204C10.252 27 11.878 26.676 13.39 26.028C14.914 25.368 16.252 24.462 17.404 23.31C18.568 22.146 19.474 20.808 20.122 19.296C20.782 17.772 21.112 16.14 21.112 14.4C21.112 12.66 20.782 11.034 20.122 9.522C19.474 7.998 18.568 6.66 17.404 5.508C16.252 4.344 14.914 3.438 13.39 2.79C11.878 2.13 10.252 1.8 8.51204 1.8H0.160034ZM8.51204 22.608H4.55203V6.192H8.51204C9.64004 6.192 10.696 6.408 11.68 6.84C12.664 7.26 13.534 7.848 14.29 8.604C15.046 9.36 15.64 10.23 16.072 11.214C16.504 12.198 16.72 13.26 16.72 14.4C16.72 15.54 16.504 16.608 16.072 17.604C15.64 18.588 15.046 19.458 14.29 20.214C13.534 20.958 12.658 21.546 11.662 21.978C10.678 22.398 9.62804 22.608 8.51204 22.608Z" fill="white"/>
</svg>
