<svg width="29" height="26" viewBox="0 0 29 26" fill="none" xmlns="http://www.w3.org/2000/svg">
<path fill-rule="evenodd" clip-rule="evenodd" d="M8.96277 23.3128L12.6306 24.286V23.0134L12.93 22.714H15.0259V24.211V25.259H12.7803L10.0107 24.0613L8.96277 23.3128Z" fill="#CDBDB2"/>
<path fill-rule="evenodd" clip-rule="evenodd" d="M20.9416 23.3128L17.3487 24.286V23.0134L17.0493 22.714H14.9534V24.211V25.259H17.199L19.9684 24.0613L20.9416 23.3128Z" fill="#CDBDB2"/>
<path fill-rule="evenodd" clip-rule="evenodd" d="M12.9357 20.5424L12.6363 23.0125L13.0105 22.7131H16.9028L17.3519 23.0125L17.0525 20.5424L16.4537 20.1681L13.4596 20.243L12.9357 20.5424Z" fill="#393939"/>
<path fill-rule="evenodd" clip-rule="evenodd" d="M10.9113 3.84949L12.7077 8.04123L13.5312 20.2423H16.4503L17.3486 8.04123L18.9953 3.84949H10.9113Z" fill="#F89C35"/>
<path fill-rule="evenodd" clip-rule="evenodd" d="M3.05376 13.0581L0.957886 19.1211L6.19756 18.8217H9.56586V16.2019L9.41616 10.8125L8.66763 11.4113L3.05376 13.0581Z" fill="#F89D35"/>
<path fill-rule="evenodd" clip-rule="evenodd" d="M7.02075 13.731L13.1587 13.8807L12.4851 17.0245L9.56574 16.276L7.02075 13.731Z" fill="#D87C30"/>
<path fill-rule="evenodd" clip-rule="evenodd" d="M7.02075 13.8053L9.56574 16.2006V18.5959L7.02075 13.8053Z" fill="#EA8D3A"/>
<path fill-rule="evenodd" clip-rule="evenodd" d="M9.56354 16.2749L12.5576 17.0234L13.5308 20.2422L12.8571 20.6164L9.56354 18.6702V16.2749Z" fill="#F89D35"/>
<path fill-rule="evenodd" clip-rule="evenodd" d="M9.56159 18.6703L8.96277 23.3111L12.93 20.5417L9.56159 18.6703Z" fill="#EB8F35"/>
<path fill-rule="evenodd" clip-rule="evenodd" d="M13.155 13.8787L13.5293 20.2412L12.4064 16.9851L13.155 13.8787Z" fill="#EA8E3A"/>
<path fill-rule="evenodd" clip-rule="evenodd" d="M6.12036 18.7452L9.56358 18.6703L8.96476 23.3111L6.12036 18.7452Z" fill="#D87C30"/>
<path fill-rule="evenodd" clip-rule="evenodd" d="M2.60464 25.3335L8.96704 23.3124L6.12265 18.7465L0.957886 19.1207L2.60464 25.3335Z" fill="#EB8F35"/>
<path fill-rule="evenodd" clip-rule="evenodd" d="M12.7095 8.04187L9.49095 10.7366L7.02075 13.7307L13.1587 13.9553L12.7095 8.04187Z" fill="#E8821E"/>
<path fill-rule="evenodd" clip-rule="evenodd" d="M8.96277 23.3111L12.93 20.5416L12.6306 22.9369V24.2843L9.93592 23.7602L8.96277 23.3111Z" fill="#DFCEC3"/>
<path fill-rule="evenodd" clip-rule="evenodd" d="M20.9416 23.3111L17.0493 20.5416L17.3487 22.9369V24.2843L20.0434 23.7602L20.9416 23.3111Z" fill="#DFCEC3"/>
<path fill-rule="evenodd" clip-rule="evenodd" d="M11.5127 15.226L12.3362 16.9476L9.41686 16.1991L11.5127 15.226Z" fill="#393939"/>
<path fill-rule="evenodd" clip-rule="evenodd" d="M2.52972 0.331787L12.7097 8.04153L10.9881 3.84979L2.52972 0.331787Z" fill="#E88F35"/>
<path fill-rule="evenodd" clip-rule="evenodd" d="M2.52886 0.331787L1.18152 4.44868L1.93004 8.93983L1.40608 9.23924L2.1546 9.91291L1.55578 10.4369L2.37916 11.1854L1.85519 11.6345L3.05283 13.1316L8.66677 11.41C11.4114 9.21429 12.7587 8.0915 12.7088 8.0416C12.6589 7.99169 9.26559 5.42176 2.52886 0.331787Z" fill="#8E5A30"/>
<path fill-rule="evenodd" clip-rule="evenodd" d="M26.8565 13.0581L28.9524 19.1211L23.7127 18.8217H20.3444V16.2019L20.4941 10.8125L21.2426 11.4113L26.8565 13.0581Z" fill="#F89D35"/>
<path fill-rule="evenodd" clip-rule="evenodd" d="M22.8895 13.731L16.7516 13.8807L17.4252 17.0245L20.3445 16.2759L22.8895 13.731Z" fill="#D87C30"/>
<path fill-rule="evenodd" clip-rule="evenodd" d="M22.8895 13.8053L20.3445 16.2006V18.5959L22.8895 13.8053Z" fill="#EA8D3A"/>
<path fill-rule="evenodd" clip-rule="evenodd" d="M20.3475 16.274L17.3534 17.0226L16.3802 20.2413L17.054 20.6155L20.3475 18.6693V16.274Z" fill="#F89D35"/>
<path fill-rule="evenodd" clip-rule="evenodd" d="M20.342 18.6703L20.9408 23.3112L17.0485 20.6165L20.342 18.6703Z" fill="#EB8F35"/>
<path fill-rule="evenodd" clip-rule="evenodd" d="M16.7492 13.8796L16.3748 20.2422L17.4977 16.9861L16.7492 13.8796Z" fill="#EA8E3A"/>
<path fill-rule="evenodd" clip-rule="evenodd" d="M23.7875 18.7452L20.3443 18.6703L20.9431 23.3112L23.7875 18.7452Z" fill="#D87C30"/>
<path fill-rule="evenodd" clip-rule="evenodd" d="M27.3056 25.3335L20.9432 23.3124L23.7876 18.7465L28.9524 19.1207L27.3056 25.3335Z" fill="#EB8F35"/>
<path fill-rule="evenodd" clip-rule="evenodd" d="M17.2007 8.04187L20.4193 10.7366L22.8895 13.7307L16.7516 13.9553L17.2007 8.04187Z" fill="#E8821E"/>
<path fill-rule="evenodd" clip-rule="evenodd" d="M18.398 15.226L17.5746 16.9476L20.4939 16.1991L18.398 15.226Z" fill="#393939"/>
<path fill-rule="evenodd" clip-rule="evenodd" d="M27.3808 0.331787L17.2008 8.04153L18.9224 3.84979L27.3808 0.331787Z" fill="#E88F35"/>
<path fill-rule="evenodd" clip-rule="evenodd" d="M27.3809 0.331787L28.7283 4.44868L27.9797 8.93983L28.5037 9.23924L27.7552 9.91292L28.354 10.4369L27.5306 11.1854L28.0546 11.6345L26.857 13.1316L21.243 11.41C18.4984 9.21429 17.1511 8.0915 17.201 8.0416C17.2509 7.9917 20.6442 5.42176 27.3809 0.331787Z" fill="#8E5A30"/>
</svg>
